<?xml version="1.0" encoding="UTF-8" standalone="no"?>
<!-- Created with Inkscape (http://www.inkscape.org/) -->

<svg
   xmlns:dc="http://purl.org/dc/elements/1.1/"
   xmlns:cc="http://creativecommons.org/ns#"
   xmlns:rdf="http://www.w3.org/1999/02/22-rdf-syntax-ns#"
   xmlns:svg="http://www.w3.org/2000/svg"
   xmlns="http://www.w3.org/2000/svg"
   xmlns:sodipodi="http://sodipodi.sourceforge.net/DTD/sodipodi-0.dtd"
   xmlns:inkscape="http://www.inkscape.org/namespaces/inkscape"
   width="744.09448819"
   height="1052.3622047"
   id="svg2"
   version="1.1"
   inkscape:version="0.48.5 r10040"
   sodipodi:docname="New document 1">
  <defs
     id="defs4">
    <inkscape:path-effect
       effect="spiro"
       id="path-effect4335"
       is_visible="true" />
    <inkscape:path-effect
       effect="spiro"
       id="path-effect4331"
       is_visible="true" />
    <marker
       inkscape:stockid="Arrow1Mend"
       orient="auto"
       refY="0.0"
       refX="0.0"
       id="Arrow1Mend"
       style="overflow:visible;">
      <path
         id="path3898"
         d="M 0.0,0.0 L 5.0,-5.0 L -12.5,0.0 L 5.0,5.0 L 0.0,0.0 z "
         style="fill-rule:evenodd;stroke:#000000;stroke-width:1.0pt;"
         transform="scale(0.4) rotate(180) translate(10,0)" />
    </marker>
    <inkscape:path-effect
       effect="spiro"
       id="path-effect3883"
       is_visible="true" />
    <inkscape:path-effect
       effect="spiro"
       id="path-effect3879"
       is_visible="true" />
    <inkscape:path-effect
       effect="spiro"
       id="path-effect3875"
       is_visible="true" />
    <inkscape:path-effect
       effect="spiro"
       id="path-effect3871"
       is_visible="true" />
    <inkscape:path-effect
       effect="spiro"
       id="path-effect3867"
       is_visible="true" />
    <inkscape:path-effect
       effect="spiro"
       id="path-effect3863"
       is_visible="true" />
    <inkscape:path-effect
       effect="spiro"
       id="path-effect3859"
       is_visible="true" />
    <inkscape:path-effect
       is_visible="true"
       id="path-effect3074"
       effect="spiro" />
    <inkscape:path-effect
       effect="spiro"
       id="path-effect3061"
       is_visible="true" />
    <inkscape:path-effect
       effect="spiro"
       id="path-effect3057"
       is_visible="true" />
    <inkscape:path-effect
       effect="spiro"
       id="path-effect3053"
       is_visible="true" />
    <inkscape:path-effect
       effect="spiro"
       id="path-effect3049"
       is_visible="true" />
    <inkscape:path-effect
       effect="spiro"
       id="path-effect3045"
       is_visible="true" />
    <inkscape:path-effect
       effect="spiro"
       id="path-effect3041"
       is_visible="true" />
    <inkscape:path-effect
       effect="spiro"
       id="path-effect3037"
       is_visible="true" />
    <inkscape:path-effect
       effect="spiro"
       id="path-effect3033"
       is_visible="true" />
    <inkscape:path-effect
       effect="spiro"
       id="path-effect3029"
       is_visible="true" />
    <inkscape:path-effect
       effect="spiro"
       id="path-effect3025"
       is_visible="true" />
    <inkscape:path-effect
       effect="spiro"
       id="path-effect3021"
       is_visible="true" />
    <inkscape:path-effect
       effect="spiro"
       id="path-effect3017"
       is_visible="true" />
    <inkscape:path-effect
       effect="spiro"
       id="path-effect3013"
       is_visible="true" />
    <inkscape:path-effect
       effect="spiro"
       id="path-effect3009"
       is_visible="true" />
    <inkscape:path-effect
       is_visible="true"
       id="path-effect3005"
       effect="spiro" />
    <inkscape:path-effect
       effect="spiro"
       id="path-effect2989"
       is_visible="true" />
  </defs>
  <sodipodi:namedview
     id="base"
     pagecolor="#ffffff"
     bordercolor="#666666"
     borderopacity="1.0"
     inkscape:pageopacity="0.0"
     inkscape:pageshadow="2"
     inkscape:zoom="1.0205612"
     inkscape:cx="508.68174"
     inkscape:cy="498.03241"
     inkscape:document-units="px"
     inkscape:current-layer="layer1"
     showgrid="true"
     inkscape:snap-global="true"
     inkscape:window-width="1366"
     inkscape:window-height="710"
     inkscape:window-x="-2"
     inkscape:window-y="-3"
     inkscape:window-maximized="1">
    <inkscape:grid
       type="xygrid"
       id="grid2985"
       empspacing="5"
       visible="true"
       enabled="true"
       snapvisiblegridlinesonly="true"
       spacingx="10px"
       spacingy="10px" />
  </sodipodi:namedview>
  <metadata
     id="metadata7">
    <rdf:RDF>
      <cc:Work
         rdf:about="">
        <dc:format>image/svg+xml</dc:format>
        <dc:type
           rdf:resource="http://purl.org/dc/dcmitype/StillImage" />
        <dc:title></dc:title>
      </cc:Work>
    </rdf:RDF>
  </metadata>
  <g
     inkscape:label="Layer 1"
     inkscape:groupmode="layer"
     id="layer1">
    <path
       style="fill:none;stroke:#000000;stroke-width:1px;stroke-linecap:butt;stroke-linejoin:miter;stroke-opacity:1"
       d="m 300,452.36218 0,30 100,0 0,-30 -100,0"
       id="path2987"
       inkscape:path-effect="#path-effect2989"
       inkscape:original-d="m 300,452.36218 0,30 100,0 0,-30 z"
       inkscape:connector-curvature="0" />
    <path
       inkscape:connector-curvature="0"
       inkscape:original-d="m 450,452.36218 0,30 100,0 0,-30 z"
       inkscape:path-effect="#path-effect3005"
       id="path3003"
       d="m 450,452.36218 0,30 100,0 0,-30 -100,0"
       style="fill:none;stroke:#000000;stroke-width:1px;stroke-linecap:butt;stroke-linejoin:miter;stroke-opacity:1" />
    <path
       style="fill:none;stroke:#000000;stroke-width:1px;stroke-linecap:butt;stroke-linejoin:miter;stroke-opacity:1"
       d="m 600,452.36218 0,30 100,0 0,-30 -100,0"
       id="path3007"
       inkscape:path-effect="#path-effect3009"
       inkscape:original-d="m 600,452.36218 0,30 100,0 0,-30 z"
       inkscape:connector-curvature="0" />
    <path
       style="fill:none;stroke:#000000;stroke-width:1px;stroke-linecap:butt;stroke-linejoin:miter;stroke-opacity:1"
       d="m 490,572.36218 0,60 20,0 0,-60 -20,0"
       id="path3011"
       inkscape:path-effect="#path-effect3013"
       inkscape:original-d="m 490,572.36218 0,60 20,0 0,-60 z"
       inkscape:connector-curvature="0" />
    <path
       style="fill:none;stroke:#000000;stroke-width:1px;stroke-linecap:butt;stroke-linejoin:miter;stroke-opacity:1"
       d="m 400,462.36218 50,0"
       id="path3015"
       inkscape:path-effect="#path-effect3017"
       inkscape:original-d="m 400,462.36218 50,0"
       inkscape:connector-curvature="0" />
    <path
       style="fill:none;stroke:#000000;stroke-width:1px;stroke-linecap:butt;stroke-linejoin:miter;stroke-opacity:1"
       d="m 400,472.36218 50,0"
       id="path3019"
       inkscape:path-effect="#path-effect3021"
       inkscape:original-d="m 400,472.36218 50,0"
       inkscape:connector-curvature="0" />
    <path
       style="fill:none;stroke:#000000;stroke-width:1px;stroke-linecap:butt;stroke-linejoin:miter;stroke-opacity:1"
       d="m 550,462.36218 50,0"
       id="path3023"
       inkscape:path-effect="#path-effect3025"
       inkscape:original-d="m 550,462.36218 50,0"
       inkscape:connector-curvature="0" />
    <path
       style="fill:none;stroke:#000000;stroke-width:1px;stroke-linecap:butt;stroke-linejoin:miter;stroke-opacity:1"
       d="m 550,472.36218 50,0"
       id="path3027"
       inkscape:path-effect="#path-effect3029"
       inkscape:original-d="m 550,472.36218 50,0"
       inkscape:connector-curvature="0" />
    <path
       style="fill:none;stroke:#000000;stroke-width:1px;stroke-linecap:butt;stroke-linejoin:miter;stroke-opacity:1"
       d="m 500,482.36218 0,90"
       id="path3031"
       inkscape:path-effect="#path-effect3033"
       inkscape:original-d="m 500,482.36218 0,90"
       inkscape:connector-curvature="0" />
    <path
       style="fill:none;stroke:#000000;stroke-width:1px;stroke-linecap:butt;stroke-linejoin:miter;stroke-opacity:1"
       d="m 370,552.36218 60,0 20,20 0,60 -20,20 -60,0 0,-100"
       id="path3059"
       inkscape:path-effect="#path-effect3061"
       inkscape:original-d="m 370,552.36218 60,0 20,20 0,60 -20,20 -60,0 z"
       inkscape:connector-curvature="0" />
    <g
       id="g3844">
      <path
         inkscape:connector-curvature="0"
         inkscape:original-d="m 400,532.36218 0,140 20,0 0,-140 z"
         inkscape:path-effect="#path-effect3037"
         id="path3035"
         d="m 400,532.36218 0,140 20,0 0,-140 -20,0"
         style="fill:#ffffff;stroke:#000000;stroke-width:1px;stroke-linecap:butt;stroke-linejoin:miter;stroke-opacity:1;fill-opacity:1" />
      <path
         inkscape:connector-curvature="0"
         inkscape:original-d="m 420,542.36218 -20,120"
         inkscape:path-effect="#path-effect3045"
         id="path3043"
         d="m 420,542.36218 -20,120"
         style="fill:none;stroke:#000000;stroke-width:1px;stroke-linecap:butt;stroke-linejoin:miter;stroke-opacity:1" />
      <path
         inkscape:connector-curvature="0"
         inkscape:original-d="m 400,542.36218 20,120"
         inkscape:path-effect="#path-effect3049"
         id="path3047"
         d="m 400,542.36218 20,120"
         style="fill:none;stroke:#000000;stroke-width:1px;stroke-linecap:butt;stroke-linejoin:miter;stroke-opacity:1" />
    </g>
    <path
       inkscape:connector-curvature="0"
       inkscape:original-d="m 630,552.36218 -60,0 -20,20 0,60 20,20 60,0 z"
       inkscape:path-effect="#path-effect3074"
       id="path3063"
       d="m 630,552.36218 -60,0 -20,20 0,60 20,20 60,0 0,-100"
       style="fill:none;stroke:#000000;stroke-width:1px;stroke-linecap:butt;stroke-linejoin:miter;stroke-opacity:1" />
    <g
       id="g3849"
       transform="translate(180,2.6171874e-6)">
      <path
         style="fill:#ffffff;fill-opacity:1;stroke:#000000;stroke-width:1px;stroke-linecap:butt;stroke-linejoin:miter;stroke-opacity:1"
         d="m 400,532.36218 0,140 20,0 0,-140 -20,0"
         id="path3851"
         inkscape:path-effect="#path-effect3037"
         inkscape:original-d="m 400,532.36218 0,140 20,0 0,-140 z"
         inkscape:connector-curvature="0" />
      <path
         style="fill:none;stroke:#000000;stroke-width:1px;stroke-linecap:butt;stroke-linejoin:miter;stroke-opacity:1"
         d="m 420,542.36218 -20,120"
         id="path3853"
         inkscape:path-effect="#path-effect3045"
         inkscape:original-d="m 420,542.36218 -20,120"
         inkscape:connector-curvature="0" />
      <path
         style="fill:none;stroke:#000000;stroke-width:1px;stroke-linecap:butt;stroke-linejoin:miter;stroke-opacity:1"
         d="m 400,542.36218 20,120"
         id="path3855"
         inkscape:path-effect="#path-effect3049"
         inkscape:original-d="m 400,542.36218 20,120"
         inkscape:connector-curvature="0" />
    </g>
    <path
       style="fill:none;stroke:#000000;stroke-width:1px;stroke-linecap:butt;stroke-linejoin:miter;stroke-opacity:1"
       d="m 400,672.36218 0,30 c -2.61799,0 -5.21987,1.07773 -7.07107,2.92893 -1.8512,1.8512 -2.92893,4.45308 -2.92893,7.07107 0,2.61799 1.07773,5.21987 2.92893,7.07107 1.8512,1.8512 4.45308,2.92893 7.07107,2.92893 -2.61799,0 -5.21987,1.07773 -7.07107,2.92893 -1.8512,1.8512 -2.92893,4.45308 -2.92893,7.07107 0,2.61799 1.07773,5.21987 2.92893,7.07107 1.8512,1.8512 4.45308,2.92893 7.07107,2.92893 -2.61799,0 -5.21987,1.07773 -7.07107,2.92893 -1.8512,1.8512 -2.92893,4.45308 -2.92893,7.07107 0,2.61799 1.07773,5.21987 2.92893,7.07107 1.8512,1.8512 4.45308,2.92893 7.07107,2.92893 -2.61799,0 -5.21987,1.07773 -7.07107,2.92893 -1.8512,1.8512 -2.92893,4.45308 -2.92893,7.07107 0,2.61799 1.07773,5.21987 2.92893,7.07107 1.8512,1.8512 4.45308,2.92893 7.07107,2.92893 -2.48037,0.41511 -4.8222,1.62125 -6.60048,3.39952 -1.77827,1.77828 -2.98441,4.12011 -3.39952,6.60048 -0.22951,1.37138 -0.21786,2.79385 0.14128,4.13712 0.35914,1.34328 1.07465,2.59478 2.07987,3.55546 1.00521,0.96067 2.28508,1.61303 3.63432,1.94905 1.34924,0.33603 2.75408,0.35837 4.14453,0.35837 l 200,0 0,-130"
       id="path3857"
       inkscape:path-effect="#path-effect3859"
       inkscape:original-d="m 400,672.36218 0,30 c 0,0 -10,0 -10,10 0,10 10,10 10,10 0,0 -10,0 -10,10 0,10 10,10 10,10 0,0 -10,0 -10,10 0,10 10,10 10,10 0,0 -10,0 -10,10 0,10 10,10 10,10 0,0 -10,0 -10,10 0,10 10,10 10,10 l 200,0 0,-130"
       inkscape:connector-curvature="0" />
    <path
       style="fill:none;stroke:#000000;stroke-width:1px;stroke-linecap:butt;stroke-linejoin:miter;stroke-opacity:1"
       d="m 420,672.36218 160,0"
       id="path3861"
       inkscape:path-effect="#path-effect3863"
       inkscape:original-d="m 420,672.36218 160,0"
       inkscape:connector-curvature="0" />
    <path
       style="fill:none;stroke:#000000;stroke-width:3;stroke-linecap:butt;stroke-linejoin:miter;stroke-opacity:1;stroke-miterlimit:4;stroke-dasharray:none"
       d="m 380,702.36218 0,100"
       id="path3865"
       inkscape:path-effect="#path-effect3867"
       inkscape:original-d="m 380,702.36218 0,100"
       inkscape:connector-curvature="0" />
    <path
       style="fill:none;stroke:#000000;stroke-width:3;stroke-linecap:butt;stroke-linejoin:miter;stroke-opacity:1;stroke-miterlimit:4;stroke-dasharray:none"
       d="m 370,702.36218 0,100"
       id="path3869"
       inkscape:path-effect="#path-effect3871"
       inkscape:original-d="m 370,702.36218 c 0,10 0,100 0,100"
       inkscape:connector-curvature="0" />
    <path
       style="fill:none;stroke:#000000;stroke-width:1px;stroke-linecap:butt;stroke-linejoin:miter;stroke-opacity:1"
       d="m 350,702.36218 c 2.61799,0 5.21987,1.07773 7.07107,2.92893 1.8512,1.8512 2.92893,4.45308 2.92893,7.07107 0,2.61799 -1.07773,5.21987 -2.92893,7.07107 -1.8512,1.8512 -4.45308,2.92893 -7.07107,2.92893 2.61799,0 5.21987,1.07773 7.07107,2.92893 1.8512,1.8512 2.92893,4.45308 2.92893,7.07107 0,2.61799 -1.07773,5.21987 -2.92893,7.07107 -1.8512,1.8512 -4.45308,2.92893 -7.07107,2.92893 2.61799,0 5.21987,1.07773 7.07107,2.92893 1.8512,1.8512 2.92893,4.45308 2.92893,7.07107 0,2.61799 -1.07773,5.21987 -2.92893,7.07107 -1.8512,1.8512 -4.45308,2.92893 -7.07107,2.92893 2.61799,0 5.21987,1.07773 7.07107,2.92893 1.8512,1.8512 2.92893,4.45308 2.92893,7.07107 0,2.61799 -1.07773,5.21987 -2.92893,7.07107 -1.8512,1.8512 -4.45308,2.92893 -7.07107,2.92893 2.48037,0.41511 4.8222,1.62125 6.60048,3.39952 1.77827,1.77828 2.98441,4.12011 3.39952,6.60048 0.22951,1.37138 0.21786,2.79385 -0.14128,4.13712 -0.35914,1.34328 -1.07465,2.59478 -2.07987,3.55546 -1.00521,0.96067 -2.28508,1.61303 -3.63432,1.94905 -1.34924,0.33603 -2.75408,0.35837 -4.14453,0.35837 l -100,0"
       id="path3873"
       inkscape:path-effect="#path-effect3875"
       inkscape:original-d="m 350,702.36218 c 0,0 10,0 10,10 0,10 -10,10 -10,10 0,0 10,0 10,10 0,10 -10,10 -10,10 0,0 10,0 10,10 0,10 -10,10 -10,10 0,0 10,0 10,10 0,10 -10,10 -10,10 0,0 10,0 10,10 0,10 -10,10 -10,10 l -100,0"
       inkscape:connector-curvature="0" />
    <path
       style="fill:none;stroke:#000000;stroke-width:1px;stroke-linecap:butt;stroke-linejoin:miter;stroke-opacity:1"
       d="m 300,802.36218 0,-20 c 2.61799,0 5.21987,-1.07773 7.07107,-2.92893 1.8512,-1.8512 2.92893,-4.45308 2.92893,-7.07107 0,-2.61799 -1.07773,-5.21987 -2.92893,-7.07107 -1.8512,-1.8512 -4.45308,-2.92893 -7.07107,-2.92893 2.61799,0 5.21987,-1.07773 7.07107,-2.92893 1.8512,-1.8512 2.92893,-4.45308 2.92893,-7.07107 0,-2.61799 -1.07773,-5.21987 -2.92893,-7.07107 -1.8512,-1.8512 -4.45308,-2.92893 -7.07107,-2.92893 2.61799,0 5.21987,-1.07773 7.07107,-2.92893 1.8512,-1.8512 2.92893,-4.45308 2.92893,-7.07107 0,-2.61799 -1.07773,-5.21987 -2.92893,-7.07107 -1.8512,-1.8512 -4.45308,-2.92893 -7.07107,-2.92893 2.61799,0 5.21987,-1.07773 7.07107,-2.92893 1.8512,-1.8512 2.92893,-4.45308 2.92893,-7.07107 0,-2.61799 -1.07773,-5.21987 -2.92893,-7.07107 -1.8512,-1.8512 -4.45308,-2.92893 -7.07107,-2.92893 2.61799,0 5.21987,-1.07773 7.07107,-2.92893 1.8512,-1.8512 2.92893,-4.45308 2.92893,-7.07107 0,-2.61799 -1.07773,-5.21987 -2.92893,-7.07107 -1.8512,-1.8512 -4.45308,-2.92893 -7.07107,-2.92893 2.61799,0 5.21987,-1.07773 7.07107,-2.92893 1.8512,-1.8512 2.92893,-4.45308 2.92893,-7.07107 0,-2.61799 -1.07773,-5.21987 -2.92893,-7.07107 -1.8512,-1.8512 -4.45308,-2.92893 -7.07107,-2.92893 2.48037,-0.41511 4.8222,-1.62125 6.60048,-3.39952 1.77827,-1.77828 2.98441,-4.12011 3.39952,-6.60048 0.22951,-1.37138 0.21786,-2.79385 -0.14128,-4.13712 -0.35914,-1.34328 -1.07465,-2.59478 -2.07987,-3.55546 -1.00521,-0.96067 -2.28508,-1.61303 -3.63432,-1.94905 -1.34924,-0.33603 -2.75408,-0.35837 -4.14453,-0.35837 l -50,0"
       id="path3877"
       inkscape:path-effect="#path-effect3879"
       inkscape:original-d="m 300,802.36218 0,-20 c 0,0 10,0 10,-10 0,-10 -10,-10 -10,-10 0,0 10,0 10,-10 0,-10 -10,-10 -10,-10 0,0 10,0 10,-10 0,-10 -10,-10 -10,-10 0,0 10,0 10,-10 0,-10 -10,-10 -10,-10 0,0 10,0 10,-10 0,-10 -10,-10 -10,-10 0,0 10,0 10,-10 0,-10 -10,-10 -10,-10 0,0 10,0 10,-10 0,-10 -10,-10 -10,-10 l -50,0"
       inkscape:connector-curvature="0" />
    <path
       style="fill:none;stroke:#000000;stroke-width:1px;stroke-linecap:butt;stroke-linejoin:miter;stroke-opacity:1;marker-end:url(#Arrow1Mend)"
       d="m 350,702.36218 -40,0"
       id="path3881"
       inkscape:path-effect="#path-effect3883"
       inkscape:original-d="m 350,702.36218 -40,0"
       inkscape:connector-curvature="0" />
    <path
       style="fill:none;stroke:#000000;stroke-width:3;stroke-linecap:butt;stroke-linejoin:miter;stroke-opacity:1;stroke-miterlimit:4;stroke-dasharray:none"
       d="m 280,652.36218 0,140"
       id="path4329"
       inkscape:path-effect="#path-effect4331"
       inkscape:original-d="m 280,652.36218 0,140"
       inkscape:connector-curvature="0" />
    <path
       style="fill:none;stroke:#000000;stroke-width:3;stroke-linecap:butt;stroke-linejoin:miter;stroke-opacity:1;stroke-miterlimit:4;stroke-dasharray:none"
       d="m 290,652.36218 0,140"
       id="path4333"
       inkscape:path-effect="#path-effect4335"
       inkscape:original-d="m 290,652.36218 0,140"
       inkscape:connector-curvature="0" />
    <path
       sodipodi:type="arc"
       style="fill:none;stroke:#000000;stroke-width:5.70887756;stroke-miterlimit:4;stroke-opacity:1;stroke-dasharray:none"
       id="path4341"
       sodipodi:cx="110"
       sodipodi:cy="712.36218"
       sodipodi:rx="10"
       sodipodi:ry="10"
       d="m 120,712.36218 a 10,10 0 1 1 -20,0 10,10 0 1 1 20,0 z"
       transform="matrix(0.17516578,0,0,0.17516578,228.98011,517.58071)" />
    <path
       transform="matrix(0.17516578,0,0,0.17516578,228.73176,677.82905)"
       d="m 120,712.36218 a 10,10 0 1 1 -20,0 10,10 0 1 1 20,0 z"
       sodipodi:ry="10"
       sodipodi:rx="10"
       sodipodi:cy="712.36218"
       sodipodi:cx="110"
       id="path4343"
       style="fill:none;stroke:#000000;stroke-width:5.70887756;stroke-miterlimit:4;stroke-opacity:1;stroke-dasharray:none"
       sodipodi:type="arc" />
    <text
       xml:space="preserve"
       style="font-size:14px;font-style:normal;font-variant:normal;font-weight:normal;font-stretch:normal;line-height:125%;letter-spacing:0px;word-spacing:0px;writing-mode:lr-tb;fill:#000000;fill-opacity:1;stroke:none;font-family:Liberation Serif;-inkscape-font-specification:Liberation Serif"
       x="346.08395"
       y="471.58771"
       id="text4345"
       sodipodi:linespacing="125%"><tspan
         sodipodi:role="line"
         id="tspan4347"
         x="346.08395"
         y="471.58771">5</tspan></text>
    <text
       xml:space="preserve"
       style="font-size:14px;font-style:normal;font-variant:normal;font-weight:normal;font-stretch:normal;line-height:125%;letter-spacing:0px;word-spacing:0px;writing-mode:lr-tb;fill:#000000;fill-opacity:1;stroke:none;font-family:Liberation Serif;-inkscape-font-specification:Liberation Serif"
       x="496.24545"
       y="471.31989"
       id="text4349"
       sodipodi:linespacing="125%"><tspan
         sodipodi:role="line"
         id="tspan4351"
         x="496.24545"
         y="471.31989">3</tspan></text>
    <text
       xml:space="preserve"
       style="font-size:14px;font-style:normal;font-variant:normal;font-weight:normal;font-stretch:normal;line-height:125%;letter-spacing:0px;word-spacing:0px;writing-mode:lr-tb;fill:#000000;fill-opacity:1;stroke:none;font-family:Liberation Serif;-inkscape-font-specification:Liberation Serif"
       x="646.51764"
       y="472.01273"
       id="text4353"
       sodipodi:linespacing="125%"><tspan
         sodipodi:role="line"
         id="tspan4355"
         x="646.51764"
         y="472.01273">6</tspan></text>
    <text
       xml:space="preserve"
       style="font-size:14px;font-style:normal;font-variant:normal;font-weight:normal;font-stretch:normal;line-height:125%;letter-spacing:0px;word-spacing:0px;writing-mode:lr-tb;fill:#000000;fill-opacity:1;stroke:none;font-family:Liberation Serif;-inkscape-font-specification:Liberation Serif"
       x="406.70926"
       y="526.05585"
       id="text4357"
       sodipodi:linespacing="125%"><tspan
         sodipodi:role="line"
         id="tspan4359"
         x="406.70926"
         y="526.05585">2</tspan></text>
    <text
       xml:space="preserve"
       style="font-size:14px;font-style:normal;font-variant:normal;font-weight:normal;font-stretch:normal;line-height:125%;letter-spacing:0px;word-spacing:0px;writing-mode:lr-tb;fill:#000000;fill-opacity:1;stroke:none;font-family:Liberation Serif;-inkscape-font-specification:Liberation Serif"
       x="380.45914"
       y="606.77417"
       id="text4361"
       sodipodi:linespacing="125%"><tspan
         sodipodi:role="line"
         id="tspan4363"
         x="380.45914"
         y="606.77417">1</tspan></text>
    <text
       xml:space="preserve"
       style="font-size:14px;font-style:normal;font-variant:normal;font-weight:normal;font-stretch:normal;line-height:125%;letter-spacing:0px;word-spacing:0px;writing-mode:lr-tb;fill:#000000;fill-opacity:1;stroke:none;font-family:Liberation Serif;-inkscape-font-specification:Liberation Serif"
       x="434.84869"
       y="607.38843"
       id="text4365"
       sodipodi:linespacing="125%"><tspan
         sodipodi:role="line"
         id="tspan4367"
         x="434.84869"
         y="607.38843">S</tspan></text>
    <text
       xml:space="preserve"
       style="font-size:14px;font-style:normal;font-variant:normal;font-weight:normal;font-stretch:normal;line-height:125%;letter-spacing:0px;word-spacing:0px;writing-mode:lr-tb;fill:#000000;fill-opacity:1;stroke:none;font-family:Liberation Serif;-inkscape-font-specification:Liberation Serif"
       x="557.64221"
       y="607.73486"
       id="text4369"
       sodipodi:linespacing="125%"><tspan
         sodipodi:role="line"
         id="tspan4371"
         x="557.64221"
         y="607.73486">N</tspan></text>
    <text
       xml:space="preserve"
       style="font-size:14px;font-style:normal;font-variant:normal;font-weight:normal;font-stretch:normal;line-height:125%;letter-spacing:0px;word-spacing:0px;writing-mode:lr-tb;fill:#000000;fill-opacity:1;stroke:none;font-family:Liberation Serif;-inkscape-font-specification:Liberation Serif"
       x="495.474"
       y="607.19916"
       id="text4373"
       sodipodi:linespacing="125%"><tspan
         sodipodi:role="line"
         id="tspan4375"
         x="495.474"
         y="607.19916">4</tspan></text>
    <text
       xml:space="preserve"
       style="font-size:14px;font-style:normal;font-variant:normal;font-weight:normal;font-stretch:normal;line-height:125%;letter-spacing:0px;word-spacing:0px;writing-mode:lr-tb;fill:#000000;fill-opacity:1;stroke:none;font-family:Liberation Serif;-inkscape-font-specification:Liberation Serif"
       x="612.29962"
       y="608.42773"
       id="text4377"
       sodipodi:linespacing="125%"><tspan
         sodipodi:role="line"
         id="tspan4379"
         x="612.29962"
         y="608.42773">1</tspan></text>
    <text
       xml:space="preserve"
       style="font-size:14px;font-style:normal;font-variant:normal;font-weight:normal;font-stretch:normal;line-height:125%;letter-spacing:0px;word-spacing:0px;writing-mode:lr-tb;fill:#000000;fill-opacity:1;stroke:none;font-family:Liberation Serif;-inkscape-font-specification:Liberation Serif"
       x="372"
       y="696.36218"
       id="text4381"
       sodipodi:linespacing="125%"><tspan
         sodipodi:role="line"
         id="tspan4383"
         x="372"
         y="696.36218">8</tspan></text>
    <text
       xml:space="preserve"
       style="font-size:14px;font-style:normal;font-variant:normal;font-weight:normal;font-stretch:normal;line-height:125%;letter-spacing:0px;word-spacing:0px;writing-mode:lr-tb;fill:#000000;fill-opacity:1;stroke:none;font-family:Liberation Serif;-inkscape-font-specification:Liberation Serif"
       x="279.72647"
       y="636.99219"
       id="text4385"
       sodipodi:linespacing="125%"><tspan
         sodipodi:role="line"
         id="tspan4387"
         x="279.72647"
         y="636.99219">7</tspan></text>
    <text
       xml:space="preserve"
       style="font-size:14px;font-style:normal;font-variant:normal;font-weight:normal;font-stretch:normal;line-height:125%;letter-spacing:0px;word-spacing:0px;writing-mode:lr-tb;fill:#000000;fill-opacity:1;stroke:none;font-family:Liberation Serif;-inkscape-font-specification:Liberation Serif"
       x="234"
       y="725.31195"
       id="text4389"
       sodipodi:linespacing="125%"><tspan
         sodipodi:role="line"
         id="tspan4391"
         x="234"
         y="725.31195">220 V</tspan></text>
  </g>
</svg>
